<?xml version="1.0" encoding="utf-8"?>
<!-- Generator: Adobe Illustrator 24.3.0, SVG Export Plug-In . SVG Version: 6.00 Build 0)  -->
<svg version="1.1" id="Layer_1" xmlns="http://www.w3.org/2000/svg" xmlns:xlink="http://www.w3.org/1999/xlink" x="0px" y="0px"
	 viewBox="0 0 640 480" style="enable-background:new 0 0 640 480;" xml:space="preserve">
<style type="text/css">
	.st0{fill:#231F20;stroke:#231F20;stroke-miterlimit:10;}
	.st1{fill:none;}
	.st2{fill:#FFFFFF;}
	.st3{font-family:'MyriadPro-Regular';}
	.st4{font-size:44px;}
	.st5{fill:#FFFFFF;stroke:#231F20;stroke-miterlimit:10;}
</style>
<path class="st0" d="M373.04,303.32H266.96c-12.79,0-23.16-10.37-23.16-23.16v-17c0-12.79,10.37-23.16,23.16-23.16h106.08
	c12.79,0,23.16,10.37,23.16,23.16v17C396.2,292.95,385.83,303.32,373.04,303.32z"/>
<path class="st0" d="M349.16,240h-58.32c-6.71,0-12.16-5.44-12.16-12.16v-88.68c0-6.71,5.44-12.16,12.16-12.16h58.32
	c6.71,0,12.16,5.44,12.16,12.16v88.68C361.32,234.56,355.87,240,349.16,240z"/>
<rect x="245.34" y="257.48" class="st1" width="149.32" height="33.16"/>
<text transform="matrix(1 0 0 1 253.4947 288.7162)" class="st2 st3 st4">PHONE</text>
<circle class="st5" cx="320" cy="232.58" r="6.18"/>
<rect x="293.95" y="147.53" class="st5" width="52.11" height="73.68"/>
</svg>
